<svg width="426" height="89" viewBox="0 0 426 89" fill="none" xmlns="http://www.w3.org/2000/svg">
<path d="M0 0H426V84H250.529L69.9857 89L0 0Z" fill="#12FFFF"/>
<rect x="343" width="83" height="84" fill="white"/>
<g clip-path="url(#clip0)">
<path d="M365.779 40.1341C365.443 37.3604 365.418 35.0556 365.61 33.1375C365.61 33.1375 360.671 36.4914 362.295 38.974C363.125 40.2436 364.57 40.3656 365.785 40.1821C365.783 40.1661 365.781 40.1505 365.779 40.1341Z" fill="#0C8A8A"/>
<path d="M365.547 37.5767C364.426 37.7037 363.163 37.537 362.378 36.4578C361.929 37.2936 361.775 38.1787 362.295 38.9744C363.125 40.2436 364.57 40.3656 365.785 40.1821C365.783 40.1661 365.781 40.1505 365.779 40.1341C365.669 39.233 365.594 38.382 365.547 37.5767Z" fill="#0C8A8A"/>
<path d="M366.706 28.5736C364.023 29.2942 362.136 29.9614 362.305 31.1756C362.461 32.293 364.64 32.9148 365.61 33.1375C365.797 31.2737 366.19 29.7764 366.706 28.5736Z" fill="#FFA812"/>
<path d="M363.135 29.8611C362.543 30.2296 362.232 30.6515 362.305 31.1756C362.461 32.293 364.64 32.9148 365.61 33.1375C365.67 32.5413 365.751 31.9828 365.85 31.4594C364.87 31.1897 363.466 30.6717 363.135 29.8611V29.8611Z" fill="#FF9A00"/>
<path d="M369.822 24.7448C371.351 23.7805 372.82 23.6763 373.339 23.6641C376.341 23.5939 377.967 24.6639 379.037 26.2169C379.958 25.7454 381.844 24.5663 381.27 23.0492C380.455 20.8927 378.223 22.155 378.223 22.155C378.223 22.155 378.869 20.6269 377.472 19.6339C376.074 18.6413 374.364 19.5709 374.364 19.5709C373.937 16.4066 369.362 15.715 367.6 19.0132C366.198 21.6355 368.866 24.0086 369.822 24.7448Z" fill="#0C8A8A"/>
<path d="M379.037 26.2169C379.563 25.9476 380.405 25.4467 380.922 24.7837C379.428 23.275 377.345 21.8548 374.717 21.6934C371.775 21.5126 369.577 22.2534 368.123 23.0301C368.703 23.8255 369.416 24.4328 369.822 24.7448C371.351 23.7805 372.82 23.6763 373.339 23.6641C376.341 23.5939 377.967 24.6639 379.037 26.2169Z" fill="#0D9999"/>
<path d="M373.339 23.6641C371.96 23.6965 363.87 24.3763 365.779 40.1341C367.453 53.9593 377.507 58.3294 385.379 58.3058C396.822 58.2714 411.088 48.9247 406.909 34.2175C406.909 34.2175 405.645 28.7518 401.288 28.9871C396.931 29.2225 397.074 37.5511 387.673 36.6352C378.137 35.706 383.283 23.431 373.339 23.6641Z" fill="#12FFFF"/>
<path d="M385.379 55.6691C377.507 55.6927 367.453 51.3226 365.779 37.4974C365.643 36.3796 365.56 35.3401 365.519 34.3689C365.441 36.0222 365.512 37.9307 365.779 40.1341C367.453 53.9593 377.507 58.3294 385.379 58.3058C395.801 58.2745 408.565 50.5177 407.601 38.0219C406.731 48.9628 395.047 55.6401 385.379 55.6691Z" fill="#0D9999"/>
<path d="M400.138 52.4918C396.025 55.7045 390.508 57.6321 385.38 57.6474C385.359 57.6474 385.339 57.6474 385.318 57.6474C383.081 57.6474 379.725 57.2804 376.321 55.5523C373.08 53.907 370.566 51.4172 368.848 48.1518C368.658 47.7902 368.202 47.6467 367.83 47.8318C367.458 48.0168 367.311 48.46 367.501 48.8217C369.364 52.364 372.096 55.0671 375.62 56.8566C377.741 57.9331 379.841 58.5202 381.701 58.8242V62.8872L378.047 61.6516C377.652 61.5185 377.22 61.7215 377.083 62.1052C376.946 62.489 377.155 62.9082 377.55 63.0417L379.989 63.8665L377.583 64.5596C377.182 64.6752 376.954 65.0845 377.073 65.4744C377.19 65.8585 377.618 66.0843 378.013 65.9703L382.673 64.6275C382.994 64.5348 383.215 64.2479 383.215 63.9218V59.0191C383.984 59.0916 384.692 59.1191 385.319 59.1191C385.341 59.1191 385.362 59.1187 385.384 59.1187C386.962 59.1141 388.574 58.9386 390.174 58.6106V62.8872L386.519 61.6516C386.124 61.5181 385.693 61.7211 385.556 62.1052C385.419 62.489 385.627 62.9082 386.022 63.0417L388.461 63.8661L386.055 64.5596C385.655 64.6752 385.426 65.0845 385.545 65.474C385.662 65.8585 386.09 66.0843 386.486 65.9703L391.146 64.6271C391.467 64.5348 391.687 64.2476 391.687 63.9218V58.2539C395.092 57.3456 398.377 55.7545 401.085 53.6385C401.411 53.384 401.463 52.9209 401.201 52.6043C400.94 52.2877 400.463 52.237 400.138 52.4918V52.4918Z" fill="black"/>
<path d="M367.68 45.4651C367.096 43.8103 366.68 41.9865 366.445 40.0444C365.68 33.7292 366.482 29.039 368.766 26.4809C370.454 24.5888 372.503 24.3408 373.306 24.3221C375.387 24.2733 376.85 24.7917 377.906 25.9533C378.88 27.0264 379.425 28.5259 380.002 30.1136C381.11 33.1661 382.366 36.6253 387.15 37.2932C387.564 37.3509 387.947 37.072 388.007 36.6695C388.066 36.2675 387.779 35.8948 387.366 35.8368C383.489 35.2955 382.488 32.5405 381.429 29.6238C381.038 28.5484 380.63 27.4261 380.053 26.4114C381.763 25.3399 382.458 24.0185 381.965 22.715C381.579 21.6938 380.919 21.2769 380.432 21.1063C379.969 20.9438 379.5 20.9404 379.089 21.003C379.031 20.3114 378.72 19.5374 377.885 18.9445C376.811 18.1812 375.628 18.2835 374.841 18.4937C374.353 17.2314 373.223 16.3151 371.774 16.0667C369.781 15.7257 367.848 16.7103 366.851 18.5757C365.479 21.1426 367.293 23.4436 368.553 24.625C368.237 24.8833 367.925 25.1781 367.623 25.5165C367.012 26.2013 366.496 26.9985 366.072 27.9038C363.805 28.5175 361.189 29.3182 361.455 31.2302C361.6 32.2743 362.698 32.9605 363.925 33.4053C363.88 33.4442 363.835 33.4839 363.787 33.5255C362.827 34.3681 362.113 35.1982 361.664 35.9924C360.779 37.5588 361.116 38.6883 361.555 39.3597C362.256 40.4316 363.376 40.9836 364.827 40.9832C364.899 40.9832 364.971 40.9817 365.044 40.979C365.303 42.7422 365.707 44.4088 366.249 45.9431C366.382 46.3219 366.82 46.5302 367.21 46.4001C367.605 46.2677 367.816 45.8492 367.68 45.4651ZM368.404 22.1317C367.78 21.0983 367.711 20.1569 368.194 19.2539C369.027 17.6945 370.502 17.3431 371.512 17.5159C372.392 17.6666 373.394 18.2858 373.567 19.5705C373.6 19.8112 373.754 20.0195 373.976 20.1294C374.198 20.2396 374.464 20.2351 374.683 20.1191C374.696 20.1122 376.007 19.4324 376.992 20.1324C377.872 20.7573 377.533 21.693 377.494 21.7907C377.371 22.081 377.453 22.414 377.695 22.6212C377.937 22.8287 378.29 22.863 378.571 22.7085C378.785 22.5903 379.445 22.3217 379.923 22.4922C380.022 22.5273 380.322 22.6341 380.545 23.2227C380.638 23.4695 380.698 23.8663 380.14 24.4553C379.867 24.7429 379.522 24.9924 379.211 25.1865C378.023 23.7671 376.245 22.7829 373.269 22.8512C372.607 22.8664 371.265 23.0061 369.83 23.7721C369.384 23.3852 368.816 22.8149 368.404 22.1317ZM362.954 31.0329C362.884 30.5267 364.22 30.003 365.417 29.6299C365.181 30.4127 365 31.2584 364.873 32.1644C363.672 31.7913 362.996 31.332 362.954 31.0329ZM362.833 38.5704C362.245 37.6713 363.034 36.4605 363.799 35.6033C364.078 35.2902 364.376 34.9999 364.659 34.745C364.614 36.2083 364.681 37.7972 364.862 39.5104C363.927 39.5153 363.245 39.2014 362.833 38.5704Z" fill="black"/>
<path d="M407.742 34.0061C407.696 33.8185 407.343 32.4421 406.468 31.0814C405.181 29.0833 403.402 28.0857 401.32 28.199C399.252 28.3104 398.084 29.8428 396.847 31.4648C395.325 33.4595 393.752 35.5221 390.223 35.8933C389.807 35.9368 389.507 36.2999 389.552 36.7039C389.597 37.1079 389.97 37.4001 390.386 37.3562C394.573 36.916 396.508 34.3796 398.062 32.3414C399.17 30.8888 400.045 29.7413 401.404 29.6681C402.913 29.5876 404.178 30.3147 405.165 31.8318C405.959 33.0528 406.267 34.3369 406.269 34.3487C406.272 34.3601 406.275 34.3716 406.278 34.3834C407.182 37.5622 407.235 40.625 406.439 43.4868C405.718 46.0759 404.32 48.4566 402.286 50.5631C401.999 50.8595 402.015 51.3249 402.319 51.603C402.62 51.8776 403.107 51.8628 403.389 51.5705C405.595 49.2863 407.113 46.6957 407.9 43.8713C408.767 40.7563 408.714 37.4371 407.742 34.0061V34.0061Z" fill="black"/>
<path d="M391.562 48.8102C387.113 49.8555 383.513 49.1124 380.862 46.6008C378.861 44.7045 378.154 42.4492 378.144 42.4179C378.027 42.0285 377.607 41.8057 377.207 41.919C376.806 42.0327 376.575 42.4408 376.692 42.8311C376.724 42.9364 377.492 45.4369 379.756 47.6075C382.241 49.9894 385.199 50.7286 387.914 50.7286C389.352 50.7286 390.723 50.5211 391.918 50.2404C397.346 48.9651 400.153 44.3886 399.641 40.8798C399.582 40.4778 399.199 40.1982 398.785 40.255C398.371 40.3122 398.083 40.6845 398.142 41.087C398.343 42.4622 397.844 44.1136 396.806 45.504C395.95 46.6511 394.345 48.1564 391.562 48.8102V48.8102Z" fill="black"/>
<path d="M371.483 30.6229C371.483 31.6712 372.162 32.4921 373.029 32.4921C373.896 32.4921 374.575 31.6712 374.575 30.6229C374.575 29.575 373.896 28.7541 373.029 28.7541C372.162 28.7541 371.483 29.575 371.483 30.6229Z" fill="black"/>
</g>
<path d="M87.5576 49.5176L94.8701 28.4062H98.5616L89.0694 54H86.0811L76.6065 28.4062H80.2803L87.5576 49.5176ZM105.03 54H101.778V34.9805H105.03V54ZM101.515 29.9355C101.515 29.4082 101.673 28.9629 101.989 28.5996C102.317 28.2363 102.798 28.0547 103.431 28.0547C104.064 28.0547 104.544 28.2363 104.872 28.5996C105.2 28.9629 105.364 29.4082 105.364 29.9355C105.364 30.4629 105.2 30.9023 104.872 31.2539C104.544 31.6055 104.064 31.7812 103.431 31.7812C102.798 31.7812 102.317 31.6055 101.989 31.2539C101.673 30.9023 101.515 30.4629 101.515 29.9355ZM109.46 44.332C109.46 41.4141 110.151 39.0703 111.534 37.3008C112.917 35.5195 114.728 34.6289 116.966 34.6289C119.192 34.6289 120.956 35.3906 122.257 36.9141V27H125.509V54H122.521L122.362 51.9609C121.062 53.5547 119.251 54.3516 116.931 54.3516C114.728 54.3516 112.929 53.4492 111.534 51.6445C110.151 49.8398 109.46 47.4844 109.46 44.5781V44.332ZM112.712 44.7012C112.712 46.8574 113.157 48.5449 114.048 49.7637C114.939 50.9824 116.169 51.5918 117.739 51.5918C119.802 51.5918 121.308 50.666 122.257 48.8145V40.0781C121.284 38.2852 119.79 37.3887 117.774 37.3887C116.181 37.3887 114.939 38.0039 114.048 39.2344C113.157 40.4648 112.712 42.2871 112.712 44.7012ZM142.314 54C142.126 53.625 141.974 52.957 141.856 51.9961C140.345 53.5664 138.54 54.3516 136.442 54.3516C134.567 54.3516 133.026 53.8242 131.819 52.7695C130.624 51.7031 130.026 50.3555 130.026 48.7266C130.026 46.7461 130.776 45.2109 132.276 44.1211C133.788 43.0195 135.909 42.4688 138.64 42.4688H141.804V40.9746C141.804 39.8379 141.464 38.9355 140.784 38.2676C140.105 37.5879 139.103 37.248 137.778 37.248C136.618 37.248 135.646 37.541 134.86 38.127C134.075 38.7129 133.683 39.4219 133.683 40.2539H130.413C130.413 39.3047 130.747 38.3906 131.415 37.5117C132.095 36.6211 133.009 35.918 134.157 35.4023C135.317 34.8867 136.589 34.6289 137.972 34.6289C140.163 34.6289 141.88 35.1797 143.122 36.2812C144.364 37.3711 145.009 38.877 145.056 40.7988V49.5527C145.056 51.2988 145.278 52.6875 145.724 53.7188V54H142.314ZM136.917 51.5215C137.937 51.5215 138.903 51.2578 139.817 50.7305C140.731 50.2031 141.394 49.5176 141.804 48.6738V44.7715H139.255C135.271 44.7715 133.278 45.9375 133.278 48.2695C133.278 49.2891 133.618 50.0859 134.298 50.6602C134.978 51.2344 135.851 51.5215 136.917 51.5215ZM178.419 45.8789C178.103 48.5859 177.101 50.6777 175.413 52.1543C173.737 53.6191 171.505 54.3516 168.716 54.3516C165.692 54.3516 163.267 53.2676 161.439 51.0996C159.622 48.9316 158.714 46.0312 158.714 42.3984V39.9375C158.714 37.5586 159.136 35.4668 159.98 33.6621C160.835 31.8574 162.042 30.4746 163.601 29.5137C165.159 28.541 166.964 28.0547 169.015 28.0547C171.733 28.0547 173.913 28.8164 175.554 30.3398C177.194 31.8516 178.149 33.9492 178.419 36.6328H175.026C174.733 34.5938 174.095 33.1172 173.11 32.2031C172.138 31.2891 170.772 30.832 169.015 30.832C166.858 30.832 165.165 31.6289 163.935 33.2227C162.716 34.8164 162.106 37.084 162.106 40.0254V42.5039C162.106 45.2812 162.687 47.4902 163.847 49.1309C165.007 50.7715 166.63 51.5918 168.716 51.5918C170.591 51.5918 172.026 51.1699 173.022 50.3262C174.03 49.4707 174.698 47.9883 175.026 45.8789H178.419ZM194.274 54C194.087 53.625 193.935 52.957 193.817 51.9961C192.306 53.5664 190.501 54.3516 188.403 54.3516C186.528 54.3516 184.987 53.8242 183.78 52.7695C182.585 51.7031 181.987 50.3555 181.987 48.7266C181.987 46.7461 182.737 45.2109 184.237 44.1211C185.749 43.0195 187.87 42.4688 190.601 42.4688H193.765V40.9746C193.765 39.8379 193.425 38.9355 192.745 38.2676C192.065 37.5879 191.064 37.248 189.739 37.248C188.579 37.248 187.606 37.541 186.821 38.127C186.036 38.7129 185.644 39.4219 185.644 40.2539H182.374C182.374 39.3047 182.708 38.3906 183.376 37.5117C184.056 36.6211 184.97 35.918 186.118 35.4023C187.278 34.8867 188.55 34.6289 189.933 34.6289C192.124 34.6289 193.841 35.1797 195.083 36.2812C196.325 37.3711 196.97 38.877 197.017 40.7988V49.5527C197.017 51.2988 197.239 52.6875 197.685 53.7188V54H194.274ZM188.878 51.5215C189.897 51.5215 190.864 51.2578 191.778 50.7305C192.692 50.2031 193.355 49.5176 193.765 48.6738V44.7715H191.216C187.231 44.7715 185.239 45.9375 185.239 48.2695C185.239 49.2891 185.579 50.0859 186.259 50.6602C186.939 51.2344 187.812 51.5215 188.878 51.5215ZM205.173 34.9805L205.261 37.0898C206.655 35.4492 208.536 34.6289 210.903 34.6289C213.564 34.6289 215.374 35.6484 216.335 37.6875C216.968 36.7734 217.788 36.0352 218.796 35.4727C219.815 34.9102 221.017 34.6289 222.399 34.6289C226.571 34.6289 228.692 36.8379 228.763 41.2559V54H225.511V41.4492C225.511 40.0898 225.2 39.0762 224.579 38.4082C223.958 37.7285 222.915 37.3887 221.45 37.3887C220.243 37.3887 219.241 37.752 218.444 38.4785C217.647 39.1934 217.185 40.1602 217.056 41.3789V54H213.786V41.5371C213.786 38.7715 212.433 37.3887 209.726 37.3887C207.593 37.3887 206.134 38.2969 205.349 40.1133V54H202.097V34.9805H205.173ZM249.751 44.7012C249.751 47.5957 249.089 49.9277 247.765 51.6973C246.44 53.4668 244.647 54.3516 242.386 54.3516C240.077 54.3516 238.261 53.6191 236.937 52.1543V61.3125H233.685V34.9805H236.655L236.814 37.0898C238.138 35.4492 239.978 34.6289 242.333 34.6289C244.618 34.6289 246.423 35.4902 247.747 37.2129C249.083 38.9355 249.751 41.332 249.751 44.4023V44.7012ZM246.499 44.332C246.499 42.1875 246.042 40.4941 245.128 39.252C244.214 38.0098 242.96 37.3887 241.366 37.3887C239.397 37.3887 237.921 38.2617 236.937 40.0078V49.0957C237.909 50.8301 239.397 51.6973 241.401 51.6973C242.96 51.6973 244.196 51.082 245.11 49.8516C246.036 48.6094 246.499 46.7695 246.499 44.332ZM261.792 54.3516C259.214 54.3516 257.116 53.5078 255.499 51.8203C253.882 50.1211 253.073 47.8535 253.073 45.0176V44.4199C253.073 42.5332 253.431 40.8516 254.146 39.375C254.872 37.8867 255.88 36.7266 257.169 35.8945C258.47 35.0508 259.876 34.6289 261.388 34.6289C263.86 34.6289 265.782 35.4434 267.153 37.0723C268.524 38.7012 269.21 41.0332 269.21 44.0684V45.4219H256.325C256.372 47.2969 256.917 48.8145 257.96 49.9746C259.015 51.123 260.351 51.6973 261.968 51.6973C263.116 51.6973 264.089 51.4629 264.886 50.9941C265.683 50.5254 266.38 49.9043 266.978 49.1309L268.964 50.6777C267.37 53.127 264.98 54.3516 261.792 54.3516ZM261.388 37.3008C260.075 37.3008 258.974 37.7812 258.083 38.7422C257.192 39.6914 256.642 41.0273 256.431 42.75H265.958V42.5039C265.864 40.8516 265.419 39.5742 264.622 38.6719C263.825 37.7578 262.747 37.3008 261.388 37.3008ZM284.064 48.9551C284.064 48.0762 283.73 47.3965 283.062 46.916C282.405 46.4238 281.251 46.002 279.599 45.6504C277.958 45.2988 276.651 44.877 275.679 44.3848C274.718 43.8926 274.003 43.3066 273.534 42.627C273.077 41.9473 272.849 41.1387 272.849 40.2012C272.849 38.6426 273.505 37.3242 274.817 36.2461C276.142 35.168 277.829 34.6289 279.88 34.6289C282.036 34.6289 283.782 35.1855 285.118 36.2988C286.466 37.4121 287.14 38.8359 287.14 40.5703H283.87C283.87 39.6797 283.489 38.9121 282.728 38.2676C281.978 37.623 281.028 37.3008 279.88 37.3008C278.696 37.3008 277.771 37.5586 277.103 38.0742C276.435 38.5898 276.101 39.2637 276.101 40.0957C276.101 40.8809 276.411 41.4727 277.032 41.8711C277.653 42.2695 278.772 42.6504 280.39 43.0137C282.019 43.377 283.337 43.8105 284.345 44.3145C285.353 44.8184 286.097 45.4277 286.577 46.1426C287.069 46.8457 287.315 47.707 287.315 48.7266C287.315 50.4258 286.636 51.791 285.276 52.8223C283.917 53.8418 282.153 54.3516 279.985 54.3516C278.462 54.3516 277.114 54.082 275.942 53.543C274.771 53.0039 273.851 52.2539 273.183 51.293C272.526 50.3203 272.198 49.2715 272.198 48.1465H275.45C275.509 49.2363 275.942 50.1035 276.751 50.748C277.571 51.3809 278.649 51.6973 279.985 51.6973C281.216 51.6973 282.2 51.4512 282.939 50.959C283.689 50.4551 284.064 49.7871 284.064 48.9551ZM295.964 30.375V34.9805H299.515V37.4941H295.964V49.2891C295.964 50.0508 296.122 50.625 296.439 51.0117C296.755 51.3867 297.294 51.5742 298.056 51.5742C298.431 51.5742 298.946 51.5039 299.603 51.3633V54C298.747 54.2344 297.915 54.3516 297.106 54.3516C295.653 54.3516 294.558 53.9121 293.819 53.0332C293.081 52.1543 292.712 50.9062 292.712 49.2891V37.4941H289.249V34.9805H292.712V30.375H295.964ZM312.522 37.8984C312.03 37.8164 311.497 37.7754 310.923 37.7754C308.79 37.7754 307.343 38.6836 306.581 40.5V54H303.329V34.9805H306.493L306.546 37.1777C307.612 35.4785 309.124 34.6289 311.081 34.6289C311.714 34.6289 312.194 34.7109 312.522 34.875V37.8984ZM323.069 54.3516C320.491 54.3516 318.394 53.5078 316.776 51.8203C315.159 50.1211 314.351 47.8535 314.351 45.0176V44.4199C314.351 42.5332 314.708 40.8516 315.423 39.375C316.149 37.8867 317.157 36.7266 318.446 35.8945C319.747 35.0508 321.153 34.6289 322.665 34.6289C325.138 34.6289 327.06 35.4434 328.431 37.0723C329.802 38.7012 330.487 41.0332 330.487 44.0684V45.4219H317.603C317.649 47.2969 318.194 48.8145 319.237 49.9746C320.292 51.123 321.628 51.6973 323.245 51.6973C324.394 51.6973 325.366 51.4629 326.163 50.9941C326.96 50.5254 327.657 49.9043 328.255 49.1309L330.241 50.6777C328.647 53.127 326.257 54.3516 323.069 54.3516ZM322.665 37.3008C321.353 37.3008 320.251 37.7812 319.36 38.7422C318.47 39.6914 317.919 41.0273 317.708 42.75H327.235V42.5039C327.142 40.8516 326.696 39.5742 325.899 38.6719C325.103 37.7578 324.024 37.3008 322.665 37.3008Z" fill="black"/>
<defs>
<clipPath id="clip0">
<rect width="51.4286" height="50" fill="white" transform="translate(359 16)"/>
</clipPath>
</defs>
</svg>
