<svg width="50" height="50" viewBox="0 0 50 50" fill="none" xmlns="http://www.w3.org/2000/svg">
<g clip-path="url(#clip0)">
<path d="M12.6838 44.3731C14.6416 46.3308 17.815 46.3308 19.7727 44.3731C21.7302 42.4157 21.7303 39.2417 19.7725 37.2843L9.59605 27.108C5.68123 31.0228 5.68103 37.37 9.59596 41.2852L12.6838 44.3731Z" fill="#E76F26"/>
<path d="M17.1241 36.4748C13.6055 36.4748 10.7531 39.3271 10.7531 42.8456C10.7531 43.9487 11.0335 44.9862 11.5269 45.8906H10.8551C9.93668 45.8906 9.19205 46.6354 9.19205 47.5537V48.466C9.19205 48.8807 9.52809 49.2167 9.94273 49.2167H17.124C20.6426 49.2167 23.495 46.3642 23.495 42.8456C23.495 39.3271 20.6428 36.4748 17.1241 36.4748Z" fill="#E76F26"/>
<path d="M11.4793 45.8905H10.8551C9.93668 45.8905 9.19205 46.6353 9.19205 47.5536V48.4659C9.19205 48.8806 9.52809 49.2166 9.94273 49.2166H13.1754C13.1768 49.1742 13.1787 49.1319 13.1787 49.0894C13.1788 47.7581 12.5048 46.5843 11.4793 45.8905Z" fill="#622500"/>
<path d="M35.4028 36.4748C38.9213 36.4748 41.7738 39.3271 41.7738 42.8456C41.7738 43.9487 41.4932 44.9862 40.9999 45.8906H41.6718C42.5901 45.8906 43.3348 46.6354 43.3348 47.5537V48.466C43.3348 48.8807 42.9988 49.2167 42.5841 49.2167H35.4029C31.8843 49.2167 29.0318 46.3642 29.0318 42.8456C29.0318 39.3271 31.8842 36.4748 35.4028 36.4748Z" fill="#E76F26"/>
<path d="M41.0477 45.8905H41.6719C42.5902 45.8905 43.3349 46.6353 43.3349 47.5536V48.4659C43.3349 48.8806 42.9989 49.2166 42.5842 49.2166H39.3514C39.35 49.1742 39.3482 49.1319 39.3482 49.0894C39.3482 47.7581 40.0222 46.5843 41.0477 45.8905Z" fill="#622500"/>
<path d="M20.419 49.2166H32.0882C34.681 49.2166 36.803 47.0949 36.803 44.502V29.4528C36.803 23.6266 32.0798 18.9034 26.2534 18.9034C20.4273 18.9034 15.704 23.6265 15.704 29.4528V44.502C15.704 47.095 17.8258 49.2166 20.419 49.2166Z" fill="#E76F26"/>
<path d="M26.2636 29.7795C23.1533 29.7795 20.6322 32.3008 20.6322 35.4108V49.2168H31.8949V35.4107C31.8948 32.3007 29.3736 29.7795 26.2636 29.7795Z" fill="white"/>
<path d="M33.0238 1.57627C34.0693 0.522469 35.7713 0.515438 36.8253 1.56104C37.3522 2.0836 37.6174 2.7706 37.6204 3.45849L37.6205 3.45859L37.6722 16.1698L30.8876 16.1974C28.87 16.2056 27.2279 14.5768 27.2197 12.5592L27.1988 7.449L33.0238 1.57627Z" fill="#E76F26"/>
<path d="M35.6314 14.9059L35.5875 4.10302C35.5869 3.9829 35.5562 3.75048 35.3567 3.55263C35.1572 3.35487 34.9251 3.32616 34.8045 3.32665C34.6839 3.32704 34.4521 3.3579 34.2542 3.55712L28.9859 8.86833L29.0035 13.1882C29.0074 14.1502 29.7931 14.9296 30.7552 14.9256L35.6314 14.9059Z" fill="white"/>
<path d="M19.3805 1.63204C18.3265 0.586629 16.6245 0.593661 15.5791 1.64747C15.0565 2.17432 14.7968 2.86348 14.7995 3.55127L14.851 16.2626L21.6357 16.2349C23.6532 16.2268 25.282 14.5846 25.2738 12.5672L25.253 7.45672L19.3805 1.63204Z" fill="#E76F26"/>
<path d="M16.8817 14.9821L16.8377 4.17928C16.8373 4.05906 16.866 3.82654 17.064 3.62693C17.2618 3.42762 17.4937 3.39695 17.6143 3.39637C17.7349 3.39588 17.967 3.42469 18.1664 3.62244L23.4777 8.89068L23.4953 13.2106C23.4993 14.1725 22.7198 14.9582 21.7579 14.9621L16.8817 14.9821Z" fill="white"/>
<path d="M37.6722 16.1698C37.6466 9.86775 32.5171 4.77987 26.2152 4.80565C19.9352 4.83105 14.8614 9.92527 14.8516 16.1974L14.8511 18.857C14.851 18.8881 14.851 18.9189 14.8511 18.95C14.8768 25.2521 20.0063 30.3398 26.3081 30.3143C32.6101 30.2887 37.6979 25.1591 37.6722 18.8572V16.1976C37.6722 16.1882 37.6723 16.179 37.6722 16.1698Z" fill="#E76F26"/>
<path d="M35.0634 14.5233C35.0514 11.5889 32.6632 9.21988 29.7287 9.2319C28.9348 9.23512 28.1828 9.41344 27.5076 9.72857L27.5035 8.72242C27.5006 8.0196 26.9286 7.45222 26.2261 7.45524C25.5233 7.45788 24.956 8.03004 24.9588 8.73248L24.9629 9.73883C24.2852 9.42926 23.5318 9.25699 22.7378 9.26021C19.8035 9.27213 17.4345 11.6605 17.4464 14.595L17.4535 16.3504C17.4589 17.6625 17.9406 18.8609 18.7328 19.7849H18.7327L23.7264 25.6236C24.3179 26.4005 25.2536 26.9005 26.3053 26.8962C27.3568 26.8919 28.2885 26.3845 28.8737 25.6029L33.8197 19.7234H33.8196C34.6043 18.7932 35.0761 17.5909 35.0707 16.2787L35.0634 14.5233Z" fill="white"/>
<path d="M26.2535 20.7581C25.79 21.1494 25.2229 21.4217 24.5995 21.529V23.0812C24.5995 23.9947 25.34 24.7353 26.2535 24.7353C27.167 24.7353 27.9076 23.9947 27.9076 23.0812V21.529C27.2841 21.4218 26.7171 21.1495 26.2535 20.7581Z" fill="#D18789"/>
<path d="M20.802 15.4834C21.2784 15.4834 21.6646 15.0972 21.6646 14.6208C21.6646 14.1444 21.2784 13.7582 20.802 13.7582C20.3256 13.7582 19.9394 14.1444 19.9394 14.6208C19.9394 15.0972 20.3256 15.4834 20.802 15.4834Z" fill="#220E02"/>
<path d="M31.7047 15.4834C32.1811 15.4834 32.5673 15.0972 32.5673 14.6208C32.5673 14.1444 32.1811 13.7582 31.7047 13.7582C31.2283 13.7582 30.8421 14.1444 30.8421 14.6208C30.8421 15.0972 31.2283 15.4834 31.7047 15.4834Z" fill="#220E02"/>
<path d="M27.3597 17.8026C26.809 18.3785 25.8877 18.3984 25.3125 17.8475L24.6706 17.233C24.0951 16.682 24.2764 16.2284 25.0731 16.2251L27.4351 16.2155C28.2319 16.2123 28.4331 16.681 27.8822 17.2564L27.3597 17.8026Z" fill="#622500"/>
<path d="M23.4952 34.06C23.4952 32.5213 22.2478 31.2738 20.709 31.2738C19.1702 31.2738 17.9228 32.5212 17.9228 34.06V45.8906H15.6132C14.6947 45.8906 13.9503 46.6354 13.9503 47.5537V48.466C13.9503 48.8807 14.2863 49.2167 14.7009 49.2167H21.8323C22.7506 49.2167 23.4952 48.4722 23.4952 47.5536V34.06Z" fill="#E76F26"/>
<path d="M17.9228 42.8457V45.8905H15.6132C14.6947 45.8905 13.9503 46.6352 13.9503 47.5535V48.4658C13.9503 48.8805 14.2863 49.2165 14.7009 49.2165H21.8323C22.7506 49.2165 23.4952 48.472 23.4952 47.5534V42.8456L17.9228 42.8457Z" fill="#622500"/>
<path d="M29.0317 34.06C29.0317 32.5213 30.2793 31.2738 31.8179 31.2738C33.3566 31.2738 34.6042 32.5212 34.6042 34.06V45.8906H36.9136C37.8322 45.8906 38.5765 46.6354 38.5765 47.5537V48.466C38.5765 48.8807 38.2406 49.2167 37.826 49.2167H30.6946C29.7763 49.2167 29.0317 48.4722 29.0317 47.5536V34.06Z" fill="#E76F26"/>
<path d="M34.6042 42.8457V45.8905H36.9136C37.8322 45.8905 38.5765 46.6352 38.5765 47.5535V48.4658C38.5765 48.8805 38.2406 49.2165 37.826 49.2165H30.6946C29.7763 49.2165 29.0317 48.472 29.0317 47.5534V42.8456L34.6042 42.8457Z" fill="#622500"/>
<path d="M31.3142 6.89589C32.7606 7.69071 34.0216 8.83123 34.9607 10.1942C35.1096 10.4102 35.3528 10.533 35.6055 10.533C35.6825 10.533 35.7603 10.5216 35.8366 10.498C36.1636 10.397 36.3872 10.0953 36.3885 9.75291L36.4112 4.18232C36.4122 3.94072 36.3544 3.47569 35.9578 3.07549C35.5613 2.67579 35.0965 2.61436 34.8485 2.61339C34.4336 2.61339 34.0427 2.77432 33.748 3.06651L31.1399 5.65341C30.9646 5.82734 30.8816 6.07363 30.9159 6.31816C30.9502 6.56288 31.0978 6.77694 31.3142 6.89589ZM34.8451 4.17627L34.8311 7.60175C34.2572 7.02724 33.6269 6.50956 32.9522 6.05966L34.8451 4.17627ZM17.5052 10.1943C18.4443 8.83133 19.7053 7.69071 21.1517 6.89599C21.368 6.77694 21.5156 6.56288 21.55 6.31845C21.5844 6.07392 21.5013 5.82763 21.326 5.65371L18.7177 3.06661C18.4231 2.77442 18.0323 2.61358 17.611 2.61358C17.3694 2.61465 16.9046 2.67598 16.5079 3.07588C16.1115 3.47588 16.0537 3.94092 16.0547 4.18272L16.0774 9.75311C16.0787 10.0954 16.3023 10.3971 16.6293 10.4982C16.7057 10.5219 16.7834 10.5332 16.8604 10.5332C17.113 10.5331 17.3563 10.4103 17.5052 10.1943ZM19.5122 6.06054C18.8373 6.51083 18.2066 7.02899 17.6325 7.60409L17.6149 4.17861L19.5122 6.06054ZM42.1731 45.1592C42.4258 44.4178 42.5569 43.6344 42.5569 42.8458C42.5569 41.2151 41.9935 39.6196 40.9706 38.3533C40.092 37.2656 38.9063 36.4561 37.586 36.032V29.453C37.586 27.963 37.3003 26.5167 36.7363 25.1481C37.8711 23.2486 38.4643 21.0819 38.4552 18.8572L38.4551 16.197L38.4552 16.1669L38.4034 3.45557C38.3994 2.52823 38.0348 1.65812 37.3768 1.00538C36.0179 -0.342561 33.8157 -0.333674 32.4677 1.02501L29.1519 4.36797C28.1931 4.13467 27.2066 4.01807 26.2119 4.02276C25.2178 4.02686 24.232 4.15088 23.2749 4.39199L19.9319 1.07609C18.573 -0.271565 16.3709 -0.262678 15.0232 1.09601C14.3743 1.75001 14.017 2.61651 14.0164 3.53741C14.0163 3.54326 14.0162 3.54903 14.0162 3.55489L14.0679 16.2629V18.8572C14.0679 18.8665 14.068 18.8758 14.0684 18.8852L14.0683 18.8864C14.068 18.9089 14.0678 18.9315 14.0679 18.9536C14.0768 21.1399 14.6664 23.2669 15.777 25.1326C15.2088 26.5057 14.9209 27.957 14.9209 29.4533V31.326L10.1498 26.5549C9.84391 26.2491 9.34811 26.2491 9.04225 26.5549C4.8284 30.7688 4.8283 37.6255 9.04225 41.8396L9.97174 42.769C9.97144 42.7948 9.97008 42.8204 9.97008 42.8461C9.97008 43.6349 10.1011 44.4183 10.3539 45.1596C9.24489 45.3914 8.40915 46.3769 8.40915 47.5539V48.4663C8.40915 49.312 9.09723 50.0001 9.94293 50.0001H42.5843C43.43 50.0001 44.1181 49.312 44.1181 48.4663V47.5539C44.118 46.3768 43.2823 45.3912 42.1731 45.1592ZM15.6341 18.9462L15.635 18.8597C15.6351 18.847 15.6348 18.8342 15.6341 18.8215V16.2598L15.5825 3.56397C15.5826 3.55879 15.5826 3.55362 15.5826 3.54854C15.5806 3.03956 15.7768 2.56036 16.1351 2.19923C16.8746 1.45333 18.0833 1.44845 18.829 2.18829L22.493 5.82246C22.6955 6.02333 22.9911 6.09804 23.2648 6.01796C24.2208 5.7375 25.2145 5.59336 26.2185 5.58925C27.2247 5.58535 28.2176 5.72148 29.1755 5.99384C29.4498 6.07177 29.7449 5.99472 29.9457 5.79199L33.5798 2.12813C34.3195 1.38243 35.5281 1.37755 36.2739 2.11729C36.6349 2.4755 36.8351 2.95313 36.8374 3.46202L36.8891 16.1756C36.8891 16.1848 36.889 16.194 36.8891 16.2031V18.8605C36.8976 20.9258 36.3124 22.9308 35.1969 24.6587C35.0522 24.8827 35.0316 25.1654 35.1423 25.4082C35.7248 26.6859 36.0201 28.0467 36.0201 29.4532V44.5024C36.0201 44.706 36.0038 44.9083 35.9726 45.1079H35.3875V34.0601C35.3875 32.092 33.7863 30.4908 31.8181 30.4908C31.3952 30.4908 30.9893 30.5651 30.6124 30.7009C30.006 30.1419 29.2954 29.6983 28.5263 29.4083C28.395 29.3587 28.2528 29.3453 28.1144 29.3697C27.5184 29.4744 26.9099 29.5286 26.3051 29.5312C25.6723 29.5361 25.0324 29.4798 24.4105 29.3706C24.2721 29.3463 24.1298 29.3598 23.9984 29.4093C23.2303 29.6994 22.5205 30.1427 21.9149 30.7011C21.538 30.5653 21.132 30.4909 20.7091 30.4909C18.7409 30.4909 17.1398 32.0921 17.1398 34.0602V45.1078H16.5348C16.5035 44.9082 16.4871 44.7059 16.4871 44.5023V29.4529C16.4871 28.0411 16.7844 26.6757 17.3706 25.3947C17.4818 25.1521 17.4616 24.8696 17.3171 24.645C16.2244 22.9467 15.6423 20.9764 15.6341 18.9462ZM33.8211 34.0601V42.0629H29.8148V34.0601C29.8148 32.9557 30.7134 32.057 31.8179 32.057C32.9225 32.057 33.8211 32.9557 33.8211 34.0601ZM10.2591 40.8411L10.1499 40.7316C6.73308 37.3146 6.55632 31.866 9.61949 28.2389L14.9212 33.5405V36.0387C13.609 36.4646 12.4307 37.2712 11.5566 38.3533C10.961 39.0903 10.5226 39.9389 10.2591 40.8411ZM9.97525 48.4337V47.5537C9.97525 47.0685 10.3701 46.6738 10.8552 46.6738H11.223C11.7871 47.1188 12.1728 47.7417 12.3238 48.4336L9.97525 48.4337ZM13.3125 46.7235C13.0191 46.2283 12.6334 45.7861 12.1684 45.4244C11.7559 44.6333 11.5363 43.7446 11.5363 42.8457C11.5363 40.5618 12.8873 38.5699 14.921 37.7066V44.5021C14.921 44.7346 14.9366 44.966 14.9658 45.1953C14.1986 45.4062 13.581 45.9818 13.3125 46.7235ZM22.7121 47.5537C22.7121 48.0389 22.3174 48.4337 21.8323 48.4337H14.7333V47.5537C14.7333 47.0685 15.1281 46.6738 15.6131 46.6738H17.9227C18.3552 46.6738 18.7058 46.3233 18.7058 45.8907V43.629H22.712L22.7121 47.5537ZM22.7121 42.0628H18.7059V34.06C18.7059 32.9556 19.6044 32.0569 20.709 32.0569C21.8136 32.0569 22.7121 32.9555 22.7121 34.06V42.0628ZM28.413 48.4337H24.114C24.2197 48.1605 24.2783 47.8639 24.2783 47.5537V34.0601C24.2783 33.1023 23.8983 32.2321 23.2822 31.5905C23.6139 31.3317 23.9775 31.1151 24.3632 30.9503C25.005 31.0506 25.6597 31.1028 26.3113 31.0974C26.929 31.0949 27.5504 31.0451 28.1618 30.9494C28.5482 31.1143 28.9126 31.3313 29.2448 31.5905C28.6287 32.2322 28.2487 33.1024 28.2487 34.0601V47.5537C28.2486 47.8639 28.3073 48.1605 28.413 48.4337ZM37.7935 48.4337H30.6945C30.2095 48.4337 29.8147 48.039 29.8147 47.5537V43.6291H33.821V45.8908C33.821 46.3234 34.1715 46.6739 34.6041 46.6739H36.9136C37.3988 46.6739 37.7934 47.0686 37.7934 47.5538L37.7935 48.4337ZM39.2145 46.7235C38.9438 45.9754 38.3182 45.3963 37.5421 45.1898C37.5708 44.9624 37.5861 44.7329 37.5861 44.5021V37.698C39.631 38.5566 40.9907 40.5542 40.9907 42.8458C40.9907 43.7447 40.7709 44.6333 40.3585 45.4245C39.8935 45.7861 39.508 46.2283 39.2145 46.7235ZM42.5518 48.4337H40.2033C40.3541 47.7418 40.7401 47.1188 41.3039 46.6739H41.6718C42.1571 46.6739 42.5518 47.0686 42.5518 47.5538V48.4337ZM23.1175 26.1168C23.8827 27.1102 25.0382 27.6794 26.2913 27.6794H26.3083C27.5683 27.6743 28.7251 27.0957 29.4863 26.0911L34.418 20.2287C35.3497 19.1242 35.8595 17.7204 35.8536 16.2759L35.8464 14.5205C35.8328 11.1727 33.0983 8.4492 29.7509 8.4492H29.7254C29.2342 8.45125 28.7523 8.51083 28.2841 8.62694C28.2309 7.5411 27.3287 6.67265 26.2229 6.67265C25.6738 6.6747 25.1585 6.89052 24.7719 7.28046C24.407 7.64833 24.198 8.12928 24.1773 8.64364C23.7161 8.53319 23.2423 8.47762 22.7599 8.47762H22.7346C21.1063 8.48416 19.5779 9.12459 18.4313 10.2807C17.2845 11.4368 16.6566 12.9704 16.6633 14.5986L16.6704 16.3541C16.6764 17.7984 17.1976 19.1979 18.1375 20.2943L23.1175 26.1168ZM19.5433 11.3835C20.3954 10.5244 21.5311 10.0486 22.741 10.0436H22.76C23.4134 10.0436 24.045 10.1807 24.6376 10.4514C24.8805 10.5622 25.1632 10.5418 25.3876 10.397C25.612 10.2522 25.7471 10.0031 25.746 9.73592L25.7419 8.72967C25.7414 8.59901 25.7917 8.47596 25.8838 8.38319C25.9758 8.29032 26.0983 8.23915 26.2317 8.23856C26.5001 8.23856 26.7193 8.45721 26.7205 8.72577L26.7246 9.73191C26.7257 9.999 26.8629 10.2471 27.0884 10.3901C27.3141 10.5331 27.5969 10.5513 27.8389 10.4385C28.4348 10.1603 29.0718 10.0179 29.7319 10.0152H29.7511C32.2383 10.0152 34.2703 12.039 34.2804 14.5266L34.2876 16.2821C34.292 17.3551 33.9131 18.3981 33.2204 19.2195L28.2744 25.099C28.2649 25.1103 28.2557 25.122 28.2469 25.1338C27.7831 25.7531 27.0742 26.1101 26.3019 26.1133H26.2915C25.5236 26.1133 24.8157 25.7619 24.3493 25.1494C24.3403 25.1377 24.3311 25.1262 24.3213 25.1149L19.3271 19.2754C18.6282 18.4603 18.2408 17.4206 18.2365 16.3476L18.2293 14.5921C18.2245 13.3821 18.6912 12.2425 19.5433 11.3835Z" fill="#1E252B"/>
</g>
<defs>
<clipPath id="clip0">
<rect width="50" height="50" fill="white"/>
</clipPath>
</defs>
</svg>
